<svg xmlns="http://www.w3.org/2000/svg" xmlns:xlink="http://www.w3.org/1999/xlink" viewBox="0 0 2421.79 315.02"><defs><style>.cls-1{fill:url(#linear-gradient);}</style><linearGradient id="linear-gradient" y1="157.51" x2="2421.79" y2="157.51" gradientUnits="userSpaceOnUse"><stop offset="0.26" stop-color="#e1f3e5"/><stop offset="0.67" stop-color="#00e9bf"/></linearGradient></defs><title>Asset 1</title><g id="Layer_2" data-name="Layer 2"><g id="Layer_1-2" data-name="Layer 1"><path class="cls-1" d="M2420,238.86a1306.16,1306.16,0,0,1-281-56.84C1895.36,104,1827.25,1.81,1698.11,0c-63.06-.87-122.82,23.66-174.31,58.68-7.83,5.33-15.43,11-23,16.7a6.45,6.45,0,0,1-2.69,1.43c-2.76.48-8.24-4.19-10.51-5.45q-7-3.91-14-7.83c-8.55-4.78-17.11-9.55-25.71-14.22-15.83-8.59-31.82-16.92-48.28-24.23-30.8-13.69-63.24-23.17-97-24.81q-4.23-.21-8.47-.27c-80.17-1.11-146.94,38.43-209.43,84.43a4.33,4.33,0,0,1-6,.42C1011,46.71,941.39,1.36,861.11,0,775.86-1.16,707.37,44.61,641.29,92.7a4.22,4.22,0,0,1-5.86.25C562.91,51.17,489.45,2.42,403.11,0,308-1.29,170.78,51.71.33,311.9A2,2,0,0,0,2,315H2419.78a2,2,0,0,0,2-2V240.86A2,2,0,0,0,2420,238.86Z"/></g></g></svg>