<svg xmlns="http://www.w3.org/2000/svg" xmlns:xlink="http://www.w3.org/1999/xlink" viewBox="0 0 1920 651"><defs><style>.cls-1{fill:url(#linear-gradient);}.cls-2{opacity:0.44;}.cls-3{opacity:0.79;}.cls-4{fill:#47c5fb;}.cls-5{fill:#00569e;}.cls-6{fill:#00b5f8;}.cls-7{fill-opacity:0.8;fill:url(#linear-gradient-2);}</style><linearGradient id="linear-gradient" y1="325.5" x2="1920" y2="325.5" gradientUnits="userSpaceOnUse"><stop offset="0" stop-color="#fff"/><stop offset="1" stop-color="#00ced4"/></linearGradient><linearGradient id="linear-gradient-2" x1="-1905.58" y1="807.26" x2="-1905.42" y2="807.2" gradientTransform="matrix(43.27, -10.77, -10.77, -43.27, 91209.87, 14960.48)" gradientUnits="userSpaceOnUse"><stop offset="0"/><stop offset="1" stop-opacity="0"/></linearGradient></defs><title>Layer 1 (2)</title><g id="Layer_2" data-name="Layer 2"><g id="Layer_1-2" data-name="Layer 1"><path class="cls-1" d="M0,0C115,94.8,287.14,203.13,494,198,686.64,193.22,786.84,93.08,927,45c191.28-65.61,496.39-47.77,993,329V651H0Z"/><g id="original-wordmark" class="cls-2"><path id="path4" d="M297.94,607.61l-12-17.13.93-.65,1.89,2.69a3.82,3.82,0,0,0,0-.59,5.65,5.65,0,0,1,2.37-5.56,6.05,6.05,0,0,1,6.69-.8,10.24,10.24,0,0,1,5.59,7.54,6.36,6.36,0,0,1-3.81,6.82,5.68,5.68,0,0,1-5.44.16L299,606.9Zm-6.84-11.72c.67.77,1.12,1.35,1.62,1.86,2,2,4.28,2.44,6.58,1.2a5.34,5.34,0,0,0,2.85-6.15,9.08,9.08,0,0,0-4.46-6,5.24,5.24,0,0,0-6.26.68,5.08,5.08,0,0,0-1.56,5.69A27.79,27.79,0,0,0,291.1,595.89Z"/><path id="path6" d="M322.09,577.6a6.12,6.12,0,0,1-1.79,7.87c-3.75,2.93-7.4,1.62-9.79-1.16a10.54,10.54,0,0,1-2.57-5.27,6.49,6.49,0,0,1,3.44-6.83,6.19,6.19,0,0,1,7.19.7,32.52,32.52,0,0,1,2.44,2.54l-10.24,7.19c1.71,2.84,4.69,4,7.12,3.08,3-1.18,4.43-3.83,3.51-6.83C321.14,578.14,321.4,577.82,322.09,577.6Zm-11.93,4.18,9.15-6.43c-2.08-2.84-5.34-3.67-7.8-2C308.72,575.25,308.15,578.66,310.16,581.78Z"/><path id="path8" d="M324,576.34l.9-.63a4.41,4.41,0,0,0,4.29,1.62,6.74,6.74,0,0,0,4.7-3.5,2.62,2.62,0,0,0-.22-3,2.41,2.41,0,0,0-2.69-1c-1.24.33-2.43.86-3.67,1.25a26.85,26.85,0,0,1-3.84,1c-2.18.35-4.44-2.66-3.29-4.93a7.91,7.91,0,0,1,6.1-4.43,4,4,0,0,1,4,2.16l-.78.55s-.11,0-.14-.06c-1.82-2.4-4.42-1.71-6.48.06a6.9,6.9,0,0,0-1.49,1.91,2.48,2.48,0,0,0,2.74,3.57c1.23-.33,2.41-.82,3.6-1.25,1-.34,1.9-.78,2.86-1.06a3.5,3.5,0,0,1,3.77,1.2,3.71,3.71,0,0,1,.58,4.31c-1.27,2.68-5,4.81-7.58,4.38A5.14,5.14,0,0,1,324,576.34Z"/><path id="path10" d="M342.09,556.58l-.85.59a3.44,3.44,0,0,0-.27-.27,3.36,3.36,0,0,0-4.1-1.07,6.8,6.8,0,0,0-3.43,2.66,2.64,2.64,0,0,0-.11,3.16,2.43,2.43,0,0,0,2.92.93c1.54-.5,3-1.17,4.54-1.72a12.33,12.33,0,0,1,1.49-.48,3.86,3.86,0,0,1,4.3,5.76,8.61,8.61,0,0,1-5.65,4.06,4.82,4.82,0,0,1-5.07-2.16l.35-.25.47-.33a5.64,5.64,0,0,0,8-.25,5.72,5.72,0,0,0,1.11-1.75,2.73,2.73,0,0,0-.27-3,2.39,2.39,0,0,0-2.69-1c-1.25.33-2.44.87-3.67,1.25a27.22,27.22,0,0,1-3.86,1.06c-2.12.33-4.4-2.63-3.28-4.87a7.79,7.79,0,0,1,6.23-4.48A4.05,4.05,0,0,1,342.09,556.58Z"/><path id="path12" d="M293.16,604.06a1.76,1.76,0,0,1-2.28.58c-2.11-.82-4.28-1.49-6.44-2.23l-.91-.3c-.08,2.66-.21,5.25-.18,7.83a1.7,1.7,0,0,1-1.23,1.87l.28-10-8.71-2.74a1.85,1.85,0,0,1,2.25-.63c2.14.8,4.34,1.45,6.6,2.2.09-2.37.2-4.67.21-7a1.66,1.66,0,0,1,1.25-1.82l-.12,3.58c-.06,1.6-.1,3.2-.2,4.79a.77.77,0,0,0,.57.93h.09Z"/><path id="path14" d="M305.1,576.93l.62.89a5.6,5.6,0,0,0-1.87,7.7,4.73,4.73,0,0,0,.32.46l4.39,6.25.49.71-.9.64-8.8-12.53.89-.63L302,583C301.82,580.35,303,578.47,305.1,576.93Z"/><path id="path16" d="M265.74,613.39c-.31-.72-.71-1.47-1-2.24A6.7,6.7,0,0,1,271.2,602c2.79.15,4.64,1.84,6.13,4.15l-10.12,7.11c2.66,4.13,7.27,4.52,10.11.68a4.72,4.72,0,0,0,.54-4.45c-.25-.77,0-1.1.72-1.34a6.28,6.28,0,0,1,.18,5.48,7.28,7.28,0,0,1-7.55,4,7.65,7.65,0,0,1-4.12-2.57,3.64,3.64,0,0,0-.57-.54C266.25,614.12,266,613.75,265.74,613.39Zm.88-1,9.15-6.43c-2.1-2.87-5.4-3.65-7.87-1.94-2.75,1.88-3.29,5.27-1.3,8.36Z"/></g><g class="cls-3"><polygon class="cls-4" points="57.41 500.15 32.11 542.22 45.13 550.05 78.26 494.96 57.41 500.15"/><polygon class="cls-4" points="64.91 531.27 51.36 553.8 64.47 561.81 72.28 548.82 85.99 526.02 64.91 531.27"/><polygon class="cls-5" points="64.47 561.81 74.36 567.76 95.1 562.6 72.28 548.82 64.47 561.81"/><polygon class="cls-6" points="51.27 553.94 59.1 540.92 72.28 548.82 64.47 561.81 51.27 553.94"/><polygon class="cls-7" points="64.47 561.81 72.42 556.78 71.62 549.91 64.47 561.81"/></g></g></g></svg>